<?xml version="1.0" encoding="UTF-8" standalone="no"?>
<!-- Created with Inkscape (http://www.inkscape.org/) -->

<svg
   xmlns:dc="http://purl.org/dc/elements/1.1/"
   xmlns:cc="http://creativecommons.org/ns#"
   xmlns:rdf="http://www.w3.org/1999/02/22-rdf-syntax-ns#"
   xmlns:svg="http://www.w3.org/2000/svg"
   xmlns="http://www.w3.org/2000/svg"
   xmlns:sodipodi="http://sodipodi.sourceforge.net/DTD/sodipodi-0.dtd"
   xmlns:inkscape="http://www.inkscape.org/namespaces/inkscape"
   width="50"
   height="50"
   id="svg2"
   version="1.1"
   inkscape:version="0.48.2 r9819"
   inkscape:export-filename="C:\Users\Marcel\Patka\Karlovka\1BcLS\zapoctak-bomberman\bitmap-bman.bmp.png"
   inkscape:export-xdpi="89.368095"
   inkscape:export-ydpi="89.368095"
   sodipodi:docname="b-man.png">
  <defs
     id="defs4">
    <inkscape:path-effect
       effect="spiro"
       id="path-effect6327"
       is_visible="true" />
    <inkscape:path-effect
       effect="skeletal"
       id="path-effect6315"
       is_visible="true"
       pattern="M 5.3133017,0.49753896 C 4.0664431,2.1831821 3.3498984,4.2742121 3.3068198,6.3939699 3.2775071,7.4814179 3.4334461,8.5642822 3.769169,9.5892058 3.1926939,9.2346884 2.5191559,9.039662 1.8515893,9.0366638 c -0.4678545,0.0045 -0.9591156,0.114458 -1.33513568,0.4237795 -3.9e-7,3e-7 -7.9e-7,6e-7 -1.19e-6,1e-6 -0.22372493,0.1865808 -0.3917882,0.4394158 -0.47727373,0.7208927 -0.0672323,0.293089 -0.04817303,0.612634 0.0590206,0.912418 0.5623369,-0.0517 1.129866,-0.100086 1.7025872,-0.145147 1.2941206,-0.145822 2.6028091,-0.180346 3.9166403,-0.28727 0.3547351,-0.02243 0.7514712,-0.07864 1.107021,-0.306629 5e-7,0 1e-6,0 1.5e-6,-10e-7 C 7.0104375,10.227906 7.1610812,10.058271 7.2678116,9.8657485 7.3742921,9.6736404 7.439552,9.4637223 7.4663629,9.2513722 c 0,-6e-7 1e-7,-1.1e-6 2e-7,-1.7e-6 C 7.5172451,8.827023 7.4338397,8.4081851 7.2833878,8.0352498 6.9866883,7.2908822 6.4911724,6.701501 6.2681347,6.0701831 c -1e-7,-4e-7 -3e-7,-8e-7 -4e-7,-1.2e-6 C 6.0946579,5.5987536 6.0541807,5.0760829 6.1000874,4.5606663 6.1467177,4.0442333 6.2881937,3.5309554 6.4696728,3.0247966 6.488824,2.9571897 6.5085211,2.8897242 6.5287584,2.8224105 6.6460023,2.1138363 6.8444941,1.4655219 7.1232458,0.89071302 c -1e-7,-4e-8 -2e-7,-8e-8 -3e-7,-1.2e-7 C 6.3446373,0.59105987 5.6402133,0.31576924 5.0099735,0.06484102 5.042577,0.04653676 5.077592,0.02492309 5.1150184,0 5.3173561,0.24675129 5.4926395,0.50889419 5.6408687,0.7864287 5.4307238,0.7406278 5.2044848,0.71154442 4.9621519,0.69917856"
       copytype="single_stretched"
       prop_scale="1"
       scale_y_rel="false"
       spacing="0"
       normal_offset="0"
       tang_offset="0"
       prop_units="false"
       vertical_pattern="false"
       fuse_tolerance="0" />
    <inkscape:path-effect
       effect="spiro"
       id="path-effect6313"
       is_visible="true" />
    <inkscape:path-effect
       effect="skeletal"
       id="path-effect6301"
       is_visible="true"
       pattern="M 5.3133017,0.49753896 C 4.0664431,2.1831821 3.3498984,4.2742121 3.3068198,6.3939699 3.2775071,7.4814179 3.4334461,8.5642822 3.769169,9.5892058 3.1926939,9.2346884 2.5191559,9.039662 1.8515893,9.0366638 c -0.4678545,0.0045 -0.9591156,0.114458 -1.33513568,0.4237795 -3.9e-7,3e-7 -7.9e-7,6e-7 -1.19e-6,1e-6 -0.22372493,0.1865808 -0.3917882,0.4394158 -0.47727373,0.7208927 -0.0672323,0.293089 -0.04817303,0.612634 0.0590206,0.912418 0.5623369,-0.0517 1.129866,-0.100086 1.7025872,-0.145147 1.2941206,-0.145822 2.6028091,-0.180346 3.9166403,-0.28727 0.3547351,-0.02243 0.7514712,-0.07864 1.107021,-0.306629 5e-7,0 1e-6,0 1.5e-6,-10e-7 C 7.0104375,10.227906 7.1610812,10.058271 7.2678116,9.8657485 7.3742921,9.6736404 7.439552,9.4637223 7.4663629,9.2513722 c 0,-6e-7 1e-7,-1.1e-6 2e-7,-1.7e-6 C 7.5172451,8.827023 7.4338397,8.4081851 7.2833878,8.0352498 6.9866883,7.2908822 6.4911724,6.701501 6.2681347,6.0701831 c -1e-7,-4e-7 -3e-7,-8e-7 -4e-7,-1.2e-6 C 6.0946579,5.5987536 6.0541807,5.0760829 6.1000874,4.5606663 6.1467177,4.0442333 6.2881937,3.5309554 6.4696728,3.0247966 6.488824,2.9571897 6.5085211,2.8897242 6.5287584,2.8224105 6.6460023,2.1138363 6.8444941,1.4655219 7.1232458,0.89071302 c -1e-7,-4e-8 -2e-7,-8e-8 -3e-7,-1.2e-7 C 6.3446373,0.59105987 5.6402133,0.31576924 5.0099735,0.06484102 5.042577,0.04653676 5.077592,0.02492309 5.1150184,0 5.3173561,0.24675129 5.4926395,0.50889419 5.6408687,0.7864287 5.4307238,0.7406278 5.2044848,0.71154442 4.9621519,0.69917856"
       copytype="single_stretched"
       prop_scale="1"
       scale_y_rel="false"
       spacing="0"
       normal_offset="0"
       tang_offset="0"
       prop_units="false"
       vertical_pattern="false"
       fuse_tolerance="0" />
    <inkscape:path-effect
       effect="spiro"
       id="path-effect6299"
       is_visible="true" />
    <inkscape:path-effect
       effect="skeletal"
       id="path-effect6287"
       is_visible="true"
       pattern="M 5.3133017,0.49753896 C 4.0664431,2.1831821 3.3498984,4.2742121 3.3068198,6.3939699 3.2775071,7.4814179 3.4334461,8.5642822 3.769169,9.5892058 3.1926939,9.2346884 2.5191559,9.039662 1.8515893,9.0366638 c -0.4678545,0.0045 -0.9591156,0.114458 -1.33513568,0.4237795 -3.9e-7,3e-7 -7.9e-7,6e-7 -1.19e-6,1e-6 -0.22372493,0.1865808 -0.3917882,0.4394158 -0.47727373,0.7208927 -0.0672323,0.293089 -0.04817303,0.612634 0.0590206,0.912418 0.5623369,-0.0517 1.129866,-0.100086 1.7025872,-0.145147 1.2941206,-0.145822 2.6028091,-0.180346 3.9166403,-0.28727 0.3547351,-0.02243 0.7514712,-0.07864 1.107021,-0.306629 5e-7,0 1e-6,0 1.5e-6,-10e-7 C 7.0104375,10.227906 7.1610812,10.058271 7.2678116,9.8657485 7.3742921,9.6736404 7.439552,9.4637223 7.4663629,9.2513722 c 0,-6e-7 1e-7,-1.1e-6 2e-7,-1.7e-6 C 7.5172451,8.827023 7.4338397,8.4081851 7.2833878,8.0352498 6.9866883,7.2908822 6.4911724,6.701501 6.2681347,6.0701831 c -1e-7,-4e-7 -3e-7,-8e-7 -4e-7,-1.2e-6 C 6.0946579,5.5987536 6.0541807,5.0760829 6.1000874,4.5606663 6.1467177,4.0442333 6.2881937,3.5309554 6.4696728,3.0247966 6.488824,2.9571897 6.5085211,2.8897242 6.5287584,2.8224105 6.6460023,2.1138363 6.8444941,1.4655219 7.1232458,0.89071302 c -1e-7,-4e-8 -2e-7,-8e-8 -3e-7,-1.2e-7 C 6.3446373,0.59105987 5.6402133,0.31576924 5.0099735,0.06484102 5.042577,0.04653676 5.077592,0.02492309 5.1150184,0 5.3173561,0.24675129 5.4926395,0.50889419 5.6408687,0.7864287 5.4307238,0.7406278 5.2044848,0.71154442 4.9621519,0.69917856"
       copytype="single_stretched"
       prop_scale="1"
       scale_y_rel="false"
       spacing="0"
       normal_offset="0"
       tang_offset="0"
       prop_units="false"
       vertical_pattern="false"
       fuse_tolerance="0" />
    <inkscape:path-effect
       effect="spiro"
       id="path-effect6285"
       is_visible="true" />
    <inkscape:path-effect
       fuse_tolerance="0"
       vertical_pattern="false"
       prop_units="false"
       tang_offset="0"
       normal_offset="0"
       spacing="0"
       scale_y_rel="false"
       prop_scale="1"
       copytype="single_stretched"
       pattern="m 25.865881,2037.5911 3.845054,0.5101 0.771698,-0.7381"
       is_visible="true"
       id="path-effect6281"
       effect="skeletal" />
    <inkscape:path-effect
       is_visible="true"
       id="path-effect6279"
       effect="spiro" />
    <inkscape:path-effect
       effect="skeletal"
       id="path-effect6237"
       is_visible="true"
       pattern="m 0.14233917,1000.5262 3.84505373,0.5101 0.7716983,-0.7381"
       copytype="single_stretched"
       prop_scale="1"
       scale_y_rel="false"
       spacing="0"
       normal_offset="0"
       tang_offset="0"
       prop_units="false"
       vertical_pattern="false"
       fuse_tolerance="0" />
    <inkscape:path-effect
       effect="spiro"
       id="path-effect6235"
       is_visible="true" />
    <inkscape:path-effect
       effect="skeletal"
       id="path-effect6224"
       is_visible="true"
       pattern="m 13.949234,996.18484 3.845054,0.51003 0.771698,-0.73803"
       copytype="single_stretched"
       prop_scale="1"
       scale_y_rel="false"
       spacing="0"
       normal_offset="0"
       tang_offset="0"
       prop_units="false"
       vertical_pattern="false"
       fuse_tolerance="0" />
    <inkscape:path-effect
       effect="spiro"
       id="path-effect6222"
       is_visible="true" />
    <inkscape:path-effect
       effect="skeletal"
       id="path-effect6211"
       is_visible="true"
       pattern="M -1.138713,-0.7683739 2.7063407,-0.25834542 3.478039,-0.9963739"
       copytype="single_stretched"
       prop_scale="1"
       scale_y_rel="false"
       spacing="0"
       normal_offset="0"
       tang_offset="0"
       prop_units="false"
       vertical_pattern="false"
       fuse_tolerance="0" />
    <inkscape:path-effect
       effect="spiro"
       id="path-effect6209"
       is_visible="true" />
    <inkscape:path-effect
       effect="skeletal"
       id="path-effect6198"
       is_visible="true"
       pattern="M -1.138713,-0.7683739 2.7063407,-0.25834542 3.478039,-0.9963739"
       copytype="single_stretched"
       prop_scale="1"
       scale_y_rel="false"
       spacing="0"
       normal_offset="0"
       tang_offset="0"
       prop_units="false"
       vertical_pattern="false"
       fuse_tolerance="0" />
    <inkscape:path-effect
       effect="spiro"
       id="path-effect6196"
       is_visible="true" />
    <inkscape:path-effect
       fuse_tolerance="0"
       vertical_pattern="false"
       prop_units="false"
       tang_offset="0"
       normal_offset="0"
       spacing="0"
       scale_y_rel="false"
       prop_scale="1"
       copytype="single_stretched"
       pattern="m 12.952861,1000.1703 3.845054,0.51 0.771698,-0.73797"
       is_visible="true"
       id="path-effect6192"
       effect="skeletal" />
    <inkscape:path-effect
       is_visible="true"
       id="path-effect6190"
       effect="spiro" />
    <inkscape:path-effect
       effect="skeletal"
       id="path-effect6176"
       is_visible="true"
       pattern="m -0.42701738,1001.0955 3.84505368,0.51 0.7716983,-0.738"
       copytype="single_stretched"
       prop_scale="1"
       scale_y_rel="false"
       spacing="0"
       normal_offset="0"
       tang_offset="0"
       prop_units="false"
       vertical_pattern="false"
       fuse_tolerance="0" />
    <inkscape:path-effect
       effect="spiro"
       id="path-effect6174"
       is_visible="true" />
    <inkscape:path-effect
       effect="skeletal"
       id="path-effect6161"
       is_visible="true"
       pattern="M 2.4909348,2.2919174 6.3359885,2.8019459 7.1076868,2.0639174"
       copytype="single_stretched"
       prop_scale="1"
       scale_y_rel="false"
       spacing="0"
       normal_offset="0"
       tang_offset="0"
       prop_units="false"
       vertical_pattern="false"
       fuse_tolerance="0" />
    <inkscape:path-effect
       effect="spiro"
       id="path-effect6159"
       is_visible="true" />
    <inkscape:path-effect
       effect="skeletal"
       id="path-effect6148"
       is_visible="true"
       pattern="M 0,0.228 3.8450537,0.73802848 4.616752,0"
       copytype="single_stretched"
       prop_scale="1"
       scale_y_rel="false"
       spacing="0"
       normal_offset="0"
       tang_offset="0"
       prop_units="false"
       vertical_pattern="false"
       fuse_tolerance="0" />
    <inkscape:path-effect
       effect="skeletal"
       id="path-effect6123"
       is_visible="true"
       pattern="m 10.533096,997.73608 1,0"
       copytype="single_stretched"
       prop_scale="1"
       scale_y_rel="false"
       spacing="0"
       normal_offset="0"
       tang_offset="0"
       prop_units="false"
       vertical_pattern="false"
       fuse_tolerance="0" />
    <inkscape:path-effect
       effect="skeletal"
       id="path-effect6119"
       is_visible="true"
       pattern="M 0,5 C 0,2.24 2.24,0 5,0 7.76,0 10,2.24 10,5 10,7.76 7.76,10 5,10 2.24,10 0,7.76 0,5 z"
       copytype="single_stretched"
       prop_scale="1"
       scale_y_rel="false"
       spacing="0"
       normal_offset="0"
       tang_offset="0"
       prop_units="false"
       vertical_pattern="false"
       fuse_tolerance="0" />
    <inkscape:path-effect
       effect="skeletal"
       id="path-effect6115"
       is_visible="true"
       pattern="M 0,5 C 0,2.24 2.24,0 5,0 7.76,0 10,2.24 10,5 10,7.76 7.76,10 5,10 2.24,10 0,7.76 0,5 z"
       copytype="single_stretched"
       prop_scale="1"
       scale_y_rel="false"
       spacing="0"
       normal_offset="0"
       tang_offset="0"
       prop_units="false"
       vertical_pattern="false"
       fuse_tolerance="0" />
    <inkscape:path-effect
       effect="skeletal"
       id="path-effect6111"
       is_visible="true"
       pattern="M 0,5 C 0,2.24 2.24,0 5,0 7.76,0 10,2.24 10,5 10,7.76 7.76,10 5,10 2.24,10 0,7.76 0,5 z"
       copytype="single_stretched"
       prop_scale="1"
       scale_y_rel="false"
       spacing="0"
       normal_offset="0"
       tang_offset="0"
       prop_units="false"
       vertical_pattern="false"
       fuse_tolerance="0" />
    <inkscape:path-effect
       effect="spiro"
       id="path-effect6109"
       is_visible="true" />
    <inkscape:path-effect
       effect="skeletal"
       id="path-effect6105"
       is_visible="true"
       pattern="M 0,5 C 0,2.24 2.24,0 5,0 7.76,0 10,2.24 10,5 10,7.76 7.76,10 5,10 2.24,10 0,7.76 0,5 z"
       copytype="single_stretched"
       prop_scale="1"
       scale_y_rel="false"
       spacing="0"
       normal_offset="0"
       tang_offset="0"
       prop_units="false"
       vertical_pattern="false"
       fuse_tolerance="0" />
    <inkscape:path-effect
       effect="spiro"
       id="path-effect6103"
       is_visible="true" />
    <inkscape:path-effect
       effect="skeletal"
       id="path-effect6099"
       is_visible="true"
       pattern="M 0,5 C 0,2.24 2.24,0 5,0 7.76,0 10,2.24 10,5 10,7.76 7.76,10 5,10 2.24,10 0,7.76 0,5 z"
       copytype="single_stretched"
       prop_scale="1"
       scale_y_rel="false"
       spacing="0"
       normal_offset="0"
       tang_offset="0"
       prop_units="false"
       vertical_pattern="false"
       fuse_tolerance="0" />
    <inkscape:path-effect
       effect="skeletal"
       id="path-effect6095"
       is_visible="true"
       pattern="M 0,5 C 0,2.24 2.24,0 5,0 7.76,0 10,2.24 10,5 10,7.76 7.76,10 5,10 2.24,10 0,7.76 0,5 z"
       copytype="single_stretched"
       prop_scale="1"
       scale_y_rel="false"
       spacing="0"
       normal_offset="0"
       tang_offset="0"
       prop_units="false"
       vertical_pattern="false"
       fuse_tolerance="0" />
    <inkscape:path-effect
       effect="skeletal"
       id="path-effect6091"
       is_visible="true"
       pattern="m 15.35079,1006.3652 c 0,-2.76 2.24,-5 5,-5 2.76,0 5,2.24 5,5 0,2.76 -2.24,5 -5,5 -2.76,0 -5,-2.24 -5,-5 z"
       copytype="single_stretched"
       prop_scale="1"
       scale_y_rel="false"
       spacing="0"
       normal_offset="0"
       tang_offset="0"
       prop_units="false"
       vertical_pattern="false"
       fuse_tolerance="0" />
    <inkscape:path-effect
       effect="skeletal"
       id="path-effect3767"
       is_visible="true"
       pattern="M 0,5 C 0,2.24 2.24,0 5,0 7.76,0 10,2.24 10,5 10,7.76 7.76,10 5,10 2.24,10 0,7.76 0,5 z"
       copytype="single_stretched"
       prop_scale="1"
       scale_y_rel="false"
       spacing="0"
       normal_offset="0"
       tang_offset="0"
       prop_units="false"
       vertical_pattern="false"
       fuse_tolerance="0" />
    <inkscape:path-effect
       effect="skeletal"
       id="path-effect6123-7"
       is_visible="true"
       pattern="m 16.084322,997.64185 1,0"
       copytype="single_stretched"
       prop_scale="1"
       scale_y_rel="false"
       spacing="0"
       normal_offset="0"
       tang_offset="0"
       prop_units="false"
       vertical_pattern="false"
       fuse_tolerance="0" />
    <inkscape:path-effect
       effect="skeletal"
       id="path-effect6123-4"
       is_visible="true"
       pattern="m -5.408887,1011.8046 1,0"
       copytype="single_stretched"
       prop_scale="1"
       scale_y_rel="false"
       spacing="0"
       normal_offset="0"
       tang_offset="0"
       prop_units="false"
       vertical_pattern="false"
       fuse_tolerance="0" />
    <inkscape:path-effect
       effect="spiro"
       id="path-effect6235-4"
       is_visible="true" />
    <inkscape:path-effect
       effect="skeletal"
       id="path-effect6237-2"
       is_visible="true"
       pattern="m -13.092146,-35.691816 3.8450537,0.5101 0.7716983,-0.7381"
       copytype="single_stretched"
       prop_scale="1"
       scale_y_rel="false"
       spacing="0"
       normal_offset="0"
       tang_offset="0"
       prop_units="false"
       vertical_pattern="false"
       fuse_tolerance="0" />
  </defs>
  <sodipodi:namedview
     id="base"
     pagecolor="#ffffff"
     bordercolor="#666666"
     borderopacity="1.0"
     inkscape:pageopacity="0.0"
     inkscape:pageshadow="2"
     inkscape:zoom="14.05095"
     inkscape:cx="18.89355"
     inkscape:cy="26.078718"
     inkscape:document-units="px"
     inkscape:current-layer="layer1"
     showgrid="false"
     inkscape:window-width="1920"
     inkscape:window-height="1017"
     inkscape:window-x="-8"
     inkscape:window-y="-8"
     inkscape:window-maximized="1"
     showguides="true">
    <inkscape:grid
       type="xygrid"
       id="grid5534"
       empspacing="5"
       visible="true"
       enabled="true"
       snapvisiblegridlinesonly="true" />
  </sodipodi:namedview>
  <metadata
     id="metadata7">
    <rdf:RDF>
      <cc:Work
         rdf:about="">
        <dc:format>image/svg+xml</dc:format>
        <dc:type
           rdf:resource="http://purl.org/dc/dcmitype/StillImage" />
        <dc:title></dc:title>
      </cc:Work>
    </rdf:RDF>
  </metadata>
  <g
     inkscape:label="Layer 1"
     inkscape:groupmode="layer"
     id="layer1"
     transform="translate(0,-1002.3621)">
    <path
       style="fill:#002255;fill-rule:evenodd;stroke:none"
       d="m 28.414228,1040.0633 c 1.435199,2.0127 2.203155,4.477 2.172682,6.9248 -0.02294,1.2399 -0.234341,2.485 -0.621241,3.6725 0.680556,-0.3797 1.471906,-0.5596 2.259828,-0.5163 0.528456,0.023 1.070088,0.1531 1.449888,0.4924 1e-6,0 1e-6,0 2e-6,0 0.223134,0.1967 0.387077,0.4598 0.465278,0.7438 0.09634,0.2724 0.11017,0.5663 0.0441,0.8291 -0.623995,-0.1009 -1.242722,-0.2053 -1.856178,-0.313 -1.529933,-0.2177 -3.070152,-0.3157 -4.593547,-0.4771 -0.401266,-0.05 -0.792113,-0.098 -1.056623,-0.3034 -0.140168,-0.1006 -0.254913,-0.2417 -0.336634,-0.3994 0,0 0,0 0,0 -0.08198,-0.1581 -0.129264,-0.3374 -0.146787,-0.5203 -0.03781,-0.3662 0.06155,-0.7496 0.216311,-1.1116 0.313912,-0.7256 0.905275,-1.375 1.257244,-2.2291 0.258308,-0.6443 0.342698,-1.3419 0.299255,-2.0196 0,0 0,0 0,0 -0.04273,-0.6768 -0.199391,-1.3334 -0.407973,-1.9585 -0.02802,-0.069 -0.05685,-0.1371 -0.0865,-0.2051 -0.375858,-0.6366 -0.802839,-1.2844 -1.269937,-1.9319 0,0 0,0 0,0 0.71457,-0.3611 1.508625,-0.7474 2.382165,-1.1589 0.03245,0.07 0.06696,0.1427 0.103524,0.2183 0,0 0,0 1e-6,0 -0.262459,0.2621 -0.55383,0.5085 -0.874113,0.7394 0.100291,-0.2093 0.184618,-0.4357 0.252982,-0.679"
       id="path6233-9"
       inkscape:path-effect="#path-effect6279;#path-effect6281"
       inkscape:original-d="m 28.300622,1040.1469 c 0,0 2.070047,4.5597 2.255596,6.8413 0.115304,1.4182 -0.584785,3.6653 -0.584785,3.6653 0,0 1.709236,-0.5422 2.255595,-0.5702 0.731532,-0.038 1.957907,0.094 1.503731,0.4886 -2.49657,2.1679 0.198822,0.7122 0.501243,1.7106 l -1.921432,-0.2442 c 0,0 -5.93138,-0.4073 -4.59473,-0.4073 0.501243,0 -3.174542,0.733 -1.169568,-0.3255 2.004972,-1.059 1.253108,-3.5025 0.835405,-4.5613 -0.417702,-1.0588 0.03707,-2.7409 -0.167081,-3.7466 -0.204134,-1.0055 -1.086027,-2.2803 -1.086027,-2.2803 l 2.422676,-1.0588 0,0.081 -0.751865,0.8145 z"
       inkscape:connector-curvature="0"
       sodipodi:nodetypes="cscssccccszccccc" />
    <path
       sodipodi:type="arc"
       style="fill:#decd87;fill-opacity:1;fill-rule:nonzero;stroke:none"
       id="path6084"
       sodipodi:cx="24"
       sodipodi:cy="14"
       sodipodi:rx="6"
       sodipodi:ry="6"
       d="m 30,14 c 0,3.313708 -2.686292,6 -6,6 -3.313708,0 -6,-2.686292 -6,-6 0,-3.313708 2.686292,-6 6,-6 3.313708,0 6,2.686292 6,6 z"
       transform="matrix(1.6761048,0,0,1.6761048,-15.809925,991.81372)" />
    <path
       style="fill:#000000;fill-rule:evenodd;stroke:none"
       d="m 15.981924,1013.2724 c 1.821545,0.2286 3.643417,0.4551 5.461961,0.7065 0.269966,0.037 0.539992,0.074 0.809126,0.1173 0.0457,0.01 0.0914,0.015 0.136863,0.023 0.0149,0 0.02504,0 0.03945,0.01 l 1.29076,-1.2379"
       id="path6121"
       inkscape:path-effect="#path-effect6123"
       inkscape:original-d="m 15.981924,1013.2724 c 6.471869,0.8121 6.449599,0.8567 6.449599,0.8567 l 1.288561,-1.2389"
       inkscape:connector-curvature="0" />
    <path
       style="fill:#000000;fill-rule:evenodd;stroke:none"
       d="m 32.867178,1012.7873 -6.344221,1.4328 -1.397065,-1.1168"
       id="path6121-4"
       inkscape:path-effect="#path-effect6123-7"
       inkscape:original-d="m 32.867178,1012.7873 c -6.372668,1.3917 -6.346321,1.434 -6.346321,1.434 l -1.394965,-1.118"
       inkscape:connector-curvature="0"
       inkscape:transform-center-x="18.012433"
       inkscape:transform-center-y="-2.2665567" />
    <path
       style="fill:#002255;fill-rule:evenodd;stroke:none"
       d="m 19.329094,1023.1152 c -3.14424,1.5987 -5.636273,4.4995 -6.742731,7.8919 -1.069666,3.2854 -0.804767,7.0132 0.758157,10.1916 0.808067,-0.2822 1.62589,-0.5702 2.453468,-0.8638 -1e-6,0 -1e-6,0 -1e-6,0 -1.627419,-2.5082 -2.000766,-5.8186 -1.001443,-8.6703 0.439785,-1.2515 1.142535,-2.4122 2.03099,-3.4072 0.880828,-1.226 2.041909,-2.2236 3.40292,-2.8334 -0.410983,-0.8224 -0.84676,-1.5861 -1.307332,-2.2909"
       id="path6172"
       inkscape:path-effect="#path-effect6174;#path-effect6176"
       inkscape:original-d="m 19.263407,1022.9904 c -0.476388,0.3969 -5.616801,4.7056 -6.669434,8.0191 -1.020799,3.2133 0.793979,10.0836 0.793979,10.0836 l 2.302544,-0.7941 c 0,0 1.644393,-8.7977 -1.190971,-8.7336 -3.484807,0.079 5.451585,-9.5585 5.796055,-6.1139 z"
       inkscape:connector-curvature="0"
       sodipodi:nodetypes="caccscc" />
    <path
       sodipodi:nodetypes="caccscc"
       inkscape:connector-curvature="0"
       inkscape:original-d="m 27.821595,1021.9582 c 0.476387,0.3969 5.616801,4.7057 6.669434,8.0191 1.020798,3.2133 -0.793979,10.0836 -0.793979,10.0836 l -2.302545,-0.794 c 0,0 -1.644392,-8.7978 1.190971,-8.7337 3.484807,0.079 -5.451585,-9.5585 -5.796055,-6.1137 z"
       inkscape:path-effect="#path-effect6190;#path-effect6192"
       id="path6188"
       d="m 27.887289,1021.8334 c 3.166083,1.7236 5.585869,4.7286 6.596144,8.1463 0.979873,3.3085 0.663558,6.9621 -0.829812,9.9756 0,0 -1e-6,0 -1e-6,0 -0.726968,-0.2471 -1.44418,-0.4886 -2.151637,-0.7243 1e-6,0 1e-6,0 1e-6,0 1.773578,-2.533 2.308202,-5.8809 1.380496,-8.797 -0.407343,-1.284 -1.090355,-2.4694 -1.978295,-3.475 -1.192899,-1.1095 -2.637899,-1.9764 -4.179875,-2.5121 0.277133,-0.8183 0.529469,-1.6954 0.75701,-2.6314"
       style="fill:#002255;fill-rule:evenodd;stroke:none" />
    <path
       style="fill:#002255;fill-rule:evenodd;stroke:none"
       d="m 20.986071,1024.8617 c -2.347439,2.2158 -3.570212,5.6194 -3.148843,8.8623 0.237982,1.8432 0.989446,3.6298 2.157524,5.111 1e-6,0 1e-6,0 1e-6,0 2.974079,0.5834 5.979724,1.1647 9.016935,1.7438 1.571705,-2.5395 2.298316,-5.6225 2.023294,-8.6299 -0.277728,-2.294 -1.157518,-4.5273 -2.529233,-6.4369 -0.361133,-0.4224 -0.74281,-0.8184 -1.142304,-1.1847 -2.229375,0.236 -4.383094,0.5033 -6.461157,0.8018"
       id="path6194"
       inkscape:path-effect="#path-effect6196;#path-effect6198"
       inkscape:original-d="m 20.887929,1024.7604 c 0,0 -3.635624,18.6374 -3.066429,8.9658 0.569195,-9.6714 2.19983,5.0643 2.19983,5.0643 l 8.932643,1.6603 c 0,0 2.109778,-5.5737 1.799861,-8.4678 -0.305304,-2.8512 -3.466401,-7.4718 -3.466401,-7.4718 z"
       inkscape:connector-curvature="0"
       sodipodi:nodetypes="czccscc" />
    <path
       style="fill:#214478;fill-rule:evenodd;stroke:none"
       d="m 12.964921,1015.5993 c 3.996862,0.9737 7.999577,1.9468 12.008145,2.9194 3.248738,-1.3922 6.504831,-2.7979 9.768279,-4.2171 -1.820354,-1.7365 -3.642985,-3.4838 -5.467896,-5.242 -1e-6,0 -1e-6,0 -2e-6,0 -3.215072,-0.012 -6.438427,-0.026 -9.670067,-0.041 -1.399747,0.7144 -2.802924,1.4315 -4.209531,2.1514 -0.348829,1.7134 -0.691982,3.4298 -1.029461,5.1492 0,0 0,0 0,0 -0.427779,-3.9703 1.112109,-8.1149 4.031803,-10.8617 1.652647,-1.5804 3.744351,-2.7191 5.982772,-3.1252 2.236983,-0.4061 4.623273,-0.065 6.586952,1.0531 2.421871,1.3667 4.067426,3.7868 5.624905,6.1596 1.192514,1.8398 2.396784,3.7524 2.556449,5.8564 0.155518,1.8277 -0.49713,3.6756 -1.519873,5.2292 0,0 -10e-7,0 -10e-7,0 -1.026554,1.5559 -2.430616,2.8458 -3.902734,4.0437 -10e-7,0 -2e-6,0 -2e-6,0 -2.446785,1.983 -5.110081,3.724 -8.035889,4.7988 -0.490038,0.1799 -0.986294,0.3413 -1.487133,0.4755 -0.721358,0.2227 -1.456701,0.389 -2.203969,0.4712 -1.2597,0.1381 -2.560255,0.041 -3.752923,-0.4052 -1.358514,-0.5048 -2.553141,-1.4566 -3.463569,-2.6255 0,0 0,0 0,0 -0.910571,-1.1692 -1.546438,-2.5509 -1.964976,-3.9886 -0.725827,-2.4899 -0.816746,-5.1837 -0.241272,-7.7563"
       id="path6157"
       inkscape:path-effect="#path-effect6159;#path-effect6161"
       inkscape:original-d="m 12.932319,1015.7365 12.048053,2.863 9.781586,-4.2943 -5.487231,-5.2488 -9.662298,0 -4.175068,2.1472 -1.073591,5.1294 c 0,0 3.340057,-10.378 3.936494,-10.9745 0.596439,-0.5964 12.644491,-2.6243 12.763779,-2.1472 0.119289,0.4772 4.53293,4.8909 5.725806,6.2029 1.192878,1.3123 4.294356,5.2488 2.624329,5.9645 -1.670028,0.7157 -4.65222,7.9923 -5.487232,9.543 -0.835014,1.5507 -5.606519,4.6522 -8.111559,4.8908 -2.505042,0.2385 -6.322246,2.1471 -7.634411,0.3577 -1.312162,-1.7892 -4.771505,-5.8448 -5.248657,-6.7992 -0.47715,-0.9542 0,-7.6345 0,-7.6345 z"
       inkscape:connector-curvature="0"
       sodipodi:nodetypes="cccccccssssssssc" />
    <path
       style="fill:#002255;fill-rule:evenodd;stroke:none"
       d="m 19.298878,1040.6986 c -1.389529,1.8858 -2.184888,4.222 -2.228684,6.5876 -0.02967,1.2129 0.145793,2.4212 0.519969,3.5655 -0.643108,-0.3941 -1.394692,-0.6094 -2.139733,-0.6101 -0.520872,0.01 -1.067031,0.1291 -1.483286,0.473 0,0 -10e-7,0 -10e-7,0 -0.247796,0.2073 -0.4337,0.488 -0.527903,0.8 -0.07594,0.3236 -0.05644,0.6762 0.06029,1.0063 0.625432,-0.06 1.256058,-0.1164 1.891878,-0.1697 1.444367,-0.1653 2.90463,-0.2068 4.369204,-0.3285 0.394909,-0.026 0.833524,-0.088 1.222257,-0.3395 1e-6,0 1e-6,0 2e-6,0 0.203617,-0.139 0.368614,-0.3254 0.485551,-0.5368 0,0 0,0 0,0 0.116687,-0.211 0.188063,-0.4419 0.217311,-0.6756 0.05575,-0.467 -0.0374,-0.9291 -0.204214,-1.3418 -0.329426,-0.8237 -0.88332,-1.48 -1.137165,-2.1914 0,0 0,0 0,0 -0.196617,-0.5315 -0.243765,-1.1199 -0.193086,-1.6995 0.0514,-0.5807 0.208818,-1.157 0.411098,-1.7241 0.02066,-0.072 0.04188,-0.1429 0.06366,-0.2142 0.143488,-0.7849 0.376027,-1.5065 0.696005,-2.1501 -0.859415,-0.3353 -1.640836,-0.6461 -2.344263,-0.9326 0.03293,-0.016 0.06802,-0.035 0.105275,-0.057 0,0 0,0 0,0 0.226264,0.2742 0.423864,0.5638 0.592801,0.8688 -0.226591,-0.059 -0.469276,-0.1022 -0.728057,-0.1283"
       id="path6233"
       inkscape:path-effect="#path-effect6235;#path-effect6237"
       inkscape:original-d="m 19.184009,1040.6167 c 0,0 -1.967399,4.4451 -2.143747,6.6694 -0.109587,1.3824 0.555787,3.573 0.555787,3.573 0,0 -1.62448,-0.5286 -2.143747,-0.5557 -0.695256,-0.037 -1.860821,0.091 -1.429165,0.4762 2.372772,2.1134 -0.188964,0.6943 -0.476388,1.6675 l 1.826154,-0.2379 c 0,0 5.63726,-0.3972 4.366892,-0.3972 -0.476389,0 3.017125,0.7147 1.111572,-0.3174 -1.905552,-1.0323 -1.190971,-3.4143 -0.793981,-4.4465 0.396991,-1.0321 -0.03522,-2.6719 0.158796,-3.6522 0.194012,-0.9803 1.032175,-2.2231 1.032175,-2.2231 l -2.302543,-1.0322 0,0.079 0.714582,0.794 z"
       inkscape:connector-curvature="0"
       sodipodi:nodetypes="cscssccccszccccc" />
    <path
       style="fill:#2ad4ff;fill-rule:evenodd;stroke:none"
       d="m 16.737453,1037.9121 c 0.103733,-0.4816 0.34065,-0.93 0.67645,-1.2849 0.338363,-0.3553 0.772283,-0.6138 1.241127,-0.742 2.34921,-0.3325 4.742037,-0.2945 7.063673,0.1085 0.670959,0.1164 1.337078,0.2679 1.973242,0.501 0.635833,0.2328 1.235582,0.5541 1.826835,0.8901 0.292857,0.1646 0.584694,0.3282 0.875513,0.4908 0.870965,1.4597 1.754892,2.8958 2.651782,4.3084 0,0 0,0 10e-7,0 -1.796525,-1.0614 -3.896216,-1.5877 -5.941553,-1.4861 -2.110844,0.1649 -4.117547,0.9426 -6.065483,0.8217 -0.05228,0 -0.104682,0.01 -0.157217,0.01 -1.005348,0.05 -2.071438,-0.1311 -2.947253,-0.7423 -0.437955,-0.3057 -0.82133,-0.717 -1.083635,-1.2187 -0.262399,-0.5022 -0.395177,-1.0932 -0.337069,-1.7008"
       id="path6207"
       inkscape:path-effect="#path-effect6209;#path-effect6211"
       inkscape:original-d="m 16.875738,1037.9397 c -0.860574,-1.2821 1.800338,-1.9599 1.800338,-1.9599 0,0 5.098768,-0.2506 7.044809,0 1.688208,0.2175 3.835504,1.3364 3.835504,1.3364 l 0.901147,0.4939 2.621261,4.4057 c 0,0 -3.209301,-0.6237 -5.948949,-1.2473 -2.739646,-0.6236 -8.105765,0.1718 -10.25411,-3.0288 z"
       inkscape:connector-curvature="0"
       sodipodi:nodetypes="scscccss" />
    <path
       style="fill:#2ad4ff;stroke:none"
       d="m 30.220335,1039.8227 0.952777,-1.7468 0.396989,1.191 1.826155,4.5257 3.334717,3.0171 -3.334717,0.4764 c 0.678387,-0.3391 1.207655,-0.9647 1.429653,-1.6899 0.221999,-0.7252 0.133636,-1.5399 -0.238683,-2.2006 -0.240977,-0.4276 -0.590284,-0.7852 -0.967684,-1.0991 -0.3774,-0.3139 -0.785563,-0.5885 -1.176063,-0.8859 -1.077065,-0.8204 -2.019663,-1.8168 -2.77893,-2.9378 l 0.555786,1.3499"
       id="path6325"
       inkscape:path-effect="#path-effect6327"
       inkscape:original-d="m 30.220335,1039.8227 0.952777,-1.7468 c 0.317591,0.5822 -0.83879,-0.9981 0.396989,1.191 l 1.826155,4.5257 3.334717,3.0171 -3.334717,0.4764 c 0,0 0.793981,-1.8261 1.19097,-3.8905 0.396991,-2.0644 -2.144695,-3.065 -2.143747,-1.985 0.0013,1.5517 -2.77893,-2.9378 -2.77893,-2.9378 0.937697,1.1398 0.931709,1.7114 0.555786,1.3499 z"
       inkscape:connector-curvature="0"
       sodipodi:nodetypes="ccccccsscc" />
    <path
       style="fill:#00aad4;fill-rule:evenodd;stroke:none"
       d="m 30.368385,1039.8085 c 0.26846,0.1016 0.580536,0.1087 0.861294,0.014 0.280893,-0.094 0.533732,-0.2921 0.695949,-0.5511 0.162417,-0.2588 0.234833,-0.5804 0.195243,-0.8928 -0.0395,-0.3124 -0.191067,-0.615 -0.426212,-0.8381 -0.317188,-0.3004 -0.767274,-0.4453 -1.211859,-0.4598 0,0 0,0 0,0 -0.443703,-0.015 -0.883648,0.083 -1.302784,0.2077 -0.524134,0.1528 -1.051817,0.3551 -1.51368,0.6958 -0.46497,0.3415 -0.843203,0.846 -0.959125,1.4562 0,0 0,0 0,0 -0.08957,0.5078 0.02666,1.0477 0.330674,1.4827 0.305584,0.4339 0.782055,0.7398 1.319615,0.8338 0.06606,0.011 0.132548,0.019 0.199217,0.024 0.481124,-0.097 0.879403,-0.362 1.125913,-0.6934 0.28093,-0.3778 0.361214,-0.8358 0.276302,-1.1944"
       id="path6220"
       inkscape:path-effect="#path-effect6222;#path-effect6224"
       inkscape:original-d="m 30.324613,1039.9425 c 0,0 2.236695,-2.3248 1.359701,-2.3903 -0.876964,-0.066 -2.140978,-0.4157 -2.465421,-0.1489 -0.324465,0.2668 -4.069924,1.075 -2.260934,2.0726 1.808986,0.9975 3.366654,0.4666 3.366654,0.4666 z"
       inkscape:connector-curvature="0" />
  </g>
</svg>
