<?xml version="1.0" encoding="UTF-8" standalone="no"?>
<!-- Created with Inkscape (http://www.inkscape.org/) -->

<svg
   xmlns:dc="http://purl.org/dc/elements/1.1/"
   xmlns:cc="http://creativecommons.org/ns#"
   xmlns:rdf="http://www.w3.org/1999/02/22-rdf-syntax-ns#"
   xmlns:svg="http://www.w3.org/2000/svg"
   xmlns="http://www.w3.org/2000/svg"
   xmlns:sodipodi="http://sodipodi.sourceforge.net/DTD/sodipodi-0.dtd"
   xmlns:inkscape="http://www.inkscape.org/namespaces/inkscape"
   width="40"
   height="50"
   id="svg2"
   version="1.1"
   inkscape:version="0.48.2 r9819"
   sodipodi:docname="bman2.png"
   inkscape:export-filename="C:\Users\Marcel\Patka\Karlovka\1BcLS\zapoctak-bomberman\bman2.png"
   inkscape:export-xdpi="129.57722"
   inkscape:export-ydpi="129.57722">
  <defs
     id="defs4">
    <inkscape:path-effect
       effect="spiro"
       id="path-effect3842"
       is_visible="true" />
    <inkscape:path-effect
       effect="spiro"
       id="path-effect3838"
       is_visible="true" />
    <inkscape:path-effect
       effect="spiro"
       id="path-effect3834"
       is_visible="true" />
    <inkscape:path-effect
       effect="spiro"
       id="path-effect3805"
       is_visible="true" />
    <inkscape:path-effect
       effect="spiro"
       id="path-effect3767"
       is_visible="true" />
    <inkscape:path-effect
       effect="spiro"
       id="path-effect3763"
       is_visible="true" />
    <inkscape:path-effect
       effect="spiro"
       id="path-effect3767-1"
       is_visible="true" />
    <inkscape:path-effect
       effect="spiro"
       id="path-effect3805-0"
       is_visible="true" />
    <inkscape:path-effect
       effect="spiro"
       id="path-effect3842-4"
       is_visible="true" />
  </defs>
  <sodipodi:namedview
     id="base"
     pagecolor="#ffffff"
     bordercolor="#666666"
     borderopacity="1.0"
     inkscape:pageopacity="0.0"
     inkscape:pageshadow="2"
     inkscape:zoom="4.68"
     inkscape:cx="94.871795"
     inkscape:cy="28.846154"
     inkscape:document-units="px"
     inkscape:current-layer="layer1"
     showgrid="false"
     inkscape:window-width="1920"
     inkscape:window-height="1017"
     inkscape:window-x="-8"
     inkscape:window-y="-8"
     inkscape:window-maximized="1" />
  <metadata
     id="metadata7">
    <rdf:RDF>
      <cc:Work
         rdf:about="">
        <dc:format>image/svg+xml</dc:format>
        <dc:type
           rdf:resource="http://purl.org/dc/dcmitype/StillImage" />
        <dc:title></dc:title>
      </cc:Work>
    </rdf:RDF>
  </metadata>
  <g
     inkscape:label="Layer 1"
     inkscape:groupmode="layer"
     id="layer1"
     transform="translate(0,-1002.3622)">
    <path
       sodipodi:type="arc"
       style="fill:none;stroke:none"
       id="path2985"
       sodipodi:cx="170.97902"
       sodipodi:cy="116.78322"
       sodipodi:rx="10.13986"
       sodipodi:ry="43.356644"
       d="m 181.11888,116.78322 a 10.13986,43.356644 0 1 1 -20.27972,0 10.13986,43.356644 0 1 1 20.27972,0 z"
       transform="matrix(0.11560831,0,0,0.07797537,-3.2265527,1007.1995)"
       inkscape:export-filename="C:\Users\Marcel\Patka\Karlovka\1BcLS\zapoctak-bomberman\bman2png.png"
       inkscape:export-xdpi="92.123688"
       inkscape:export-ydpi="92.123688" />
    <path
       sodipodi:type="arc"
       style="fill:none;stroke:#000000;stroke-width:10.53238583;stroke-opacity:1"
       id="path3759"
       sodipodi:cx="210.13986"
       sodipodi:cy="154.89511"
       sodipodi:rx="64.685318"
       sodipodi:ry="85.664337"
       d="M 274.82518,154.89511 A 64.685318,85.664337 0 1 1 145.70605,147.34835"
       transform="matrix(0.11560831,0,0,0.07797537,-3.2265527,1007.1995)"
       sodipodi:start="0"
       sodipodi:end="3.2298039"
       sodipodi:open="true"
       inkscape:export-filename="C:\Users\Marcel\Patka\Karlovka\1BcLS\zapoctak-bomberman\bman2png.png"
       inkscape:export-xdpi="92.123688"
       inkscape:export-ydpi="92.123688" />
    <path
       style="fill:none;stroke:#000000;stroke-width:0.99999994px;stroke-linecap:butt;stroke-linejoin:miter;stroke-opacity:1"
       d="m 13.589206,1018.5413 c 1.728012,0.6038 3.519746,1.0249 5.335767,1.2543 3.23333,0.4084 6.543011,0.2037 9.701397,-0.5999"
       id="path3765"
       inkscape:path-effect="#path-effect3767"
       inkscape:original-d="m 13.589206,1018.5413 c 0,0 2.829571,1.1452 5.335767,1.2543 2.506191,0.1089 9.701397,-0.5999 9.701397,-0.5999"
       inkscape:connector-curvature="0"
       sodipodi:nodetypes="csc"
       inkscape:export-filename="C:\Users\Marcel\Patka\Karlovka\1BcLS\zapoctak-bomberman\bman2png.png"
       inkscape:export-xdpi="92.123688"
       inkscape:export-ydpi="92.123688" />
    <path
       transform="matrix(0.11365194,-0.01428427,-0.02117822,-0.07665584,0.47697318,1033.9385)"
       sodipodi:type="arc"
       style="fill:none;stroke:#000000;stroke-width:10.53238583;stroke-opacity:1"
       id="path3759-7"
       sodipodi:cx="210.13986"
       sodipodi:cy="154.89511"
       sodipodi:rx="64.685318"
       sodipodi:ry="85.664337"
       d="M 274.00797,141.32123 A 64.685318,85.664337 0 0 1 146.80686,172.31995"
       sodipodi:start="6.1240603"
       sodipodi:end="9.2199402"
       sodipodi:open="true"
       inkscape:export-filename="C:\Users\Marcel\Patka\Karlovka\1BcLS\zapoctak-bomberman\bman2png.png"
       inkscape:export-xdpi="92.123688"
       inkscape:export-ydpi="92.123688" />
    <path
       style="fill:none;stroke:#000000;stroke-width:0.99999994px;stroke-linecap:butt;stroke-linejoin:miter;stroke-opacity:1"
       d="m 13.50836,1018.6274 c 1.726354,-0.609 3.518863,-1.0303 5.335768,-1.2541 3.126979,-0.3851 6.325562,-0.1806 9.378018,0.5997"
       id="path3765-4"
       inkscape:path-effect="#path-effect3767-1"
       inkscape:original-d="m 13.50836,1018.6274 c 0,0 2.829572,-1.1451 5.335768,-1.2541 2.506194,-0.1092 9.378018,0.5997 9.378018,0.5997"
       inkscape:connector-curvature="0"
       sodipodi:nodetypes="csc"
       inkscape:export-filename="C:\Users\Marcel\Patka\Karlovka\1BcLS\zapoctak-bomberman\bman2png.png"
       inkscape:export-xdpi="92.123688"
       inkscape:export-ydpi="92.123688" />
    <path
       style="fill:#000000;fill-opacity:1;stroke:none"
       d="m 13.629994,1017.923 c 0.245234,-2.3806 1.824466,-4.2393 4.288457,-5.0474 3.407555,-1.1175 7.580213,0.3809 9.563999,3.4345 0.327727,0.5045 0.794882,1.5012 0.725516,1.548 -0.01984,0.013 -0.251251,-0.026 -0.514219,-0.087 -4.196484,-0.9775 -9.124094,-0.8112 -13.136993,0.4434 -0.470527,0.1472 -0.884494,0.2676 -0.919922,0.2676 -0.03543,0 -0.0385,-0.2516 -0.0069,-0.559 l 0,0 z"
       id="path3797"
       inkscape:connector-curvature="0"
       inkscape:export-filename="C:\Users\Marcel\Patka\Karlovka\1BcLS\zapoctak-bomberman\bman2png.png"
       inkscape:export-xdpi="92.123688"
       inkscape:export-ydpi="92.123688" />
    <path
       style="fill:#000000;fill-opacity:1;fill-rule:nonzero;stroke:none"
       d="m 20.101268,1025.822 c -1.309376,-0.1688 -2.407083,-0.582 -3.479904,-1.3098 -1.627747,-1.1041 -2.580765,-2.5829 -2.861846,-4.4411 -0.106501,-0.704 -0.10988,-1.2998 -0.0076,-1.3424 0.04281,-0.018 0.258109,0.029 0.478474,0.1044 1.449457,0.4954 3.614507,0.9292 5.628349,1.1278 1.041069,0.1026 3.65541,0.089 4.814995,-0.026 1.00672,-0.099 2.579886,-0.3452 3.330134,-0.5214 0.255675,-0.059 0.46455,-0.092 0.464172,-0.071 -0.0058,0.3201 -0.199315,1.3876 -0.31794,1.7541 -0.548726,1.6959 -1.95203,3.2333 -3.685279,4.0376 -0.506591,0.2351 -1.44385,0.5252 -2.019041,0.6251 -0.697429,0.121 -1.683127,0.1468 -2.344506,0.062 l 0,0 z"
       id="path3799"
       inkscape:connector-curvature="0"
       inkscape:export-filename="C:\Users\Marcel\Patka\Karlovka\1BcLS\zapoctak-bomberman\bman2png.png"
       inkscape:export-xdpi="92.123688"
       inkscape:export-ydpi="92.123688" />
    <path
       style="fill:#ffccaa;fill-opacity:1;fill-rule:nonzero;stroke:none"
       d="m 20.101268,1019.7557 c -2.044882,-0.2108 -3.849687,-0.5585 -5.497458,-1.0593 l -0.404223,-0.1229 0.525492,-0.1598 c 2.500593,-0.7608 4.865243,-1.0626 7.882382,-1.006 1.783552,0.034 2.680557,0.1258 4.371213,0.4506 0.536647,0.1031 1.051766,0.1875 1.144696,0.1875 0.146153,0 0.180692,0.05 0.255706,0.368 0.15838,0.6721 0.158072,0.7225 -0.0044,0.7225 -0.08077,0 -0.538312,0.075 -1.016776,0.1655 -1.98484,0.3776 -2.705256,0.4449 -4.952604,0.4626 -1.133852,0.01 -2.170689,0.01 -2.304084,-0.01 z"
       id="path3801"
       inkscape:connector-curvature="0"
       inkscape:export-filename="C:\Users\Marcel\Patka\Karlovka\1BcLS\zapoctak-bomberman\bman2png.png"
       inkscape:export-xdpi="92.123688"
       inkscape:export-ydpi="92.123688" />
    <path
       style="fill:none;stroke:#000000;stroke-width:0.99999994;stroke-linecap:butt;stroke-linejoin:miter;stroke-miterlimit:4;stroke-opacity:1;stroke-dasharray:none"
       d="m 18.520749,1018.2687 c 0.552626,-0.034 1.113181,0.07 1.616897,0.2999 0.292177,0.1333 0.565283,0.3083 0.808449,0.5181"
       id="path3803"
       inkscape:path-effect="#path-effect3805"
       inkscape:original-d="m 18.520749,1018.2687 c 0,0 1.563001,-0.5088 1.616897,0.2999 0.02512,0.3767 0.808449,0.5181 0.808449,0.5181"
       inkscape:connector-curvature="0"
       sodipodi:nodetypes="csc"
       inkscape:export-filename="C:\Users\Marcel\Patka\Karlovka\1BcLS\zapoctak-bomberman\bman2png.png"
       inkscape:export-xdpi="92.123688"
       inkscape:export-ydpi="92.123688" />
    <path
       style="fill:none;stroke:#000000;stroke-width:0.99999994;stroke-linecap:butt;stroke-linejoin:miter;stroke-miterlimit:4;stroke-opacity:1;stroke-dasharray:none"
       d="m 25.473415,1018.1873 c -0.552626,-0.034 -1.113181,0.07 -1.616898,0.2999 -0.292178,0.1333 -0.565284,0.3083 -0.808451,0.5181"
       id="path3803-9"
       inkscape:path-effect="#path-effect3805-0"
       inkscape:original-d="m 25.473415,1018.1873 c 0,0 -1.563001,-0.509 -1.616898,0.2999 -0.02512,0.3766 -0.808451,0.5181 -0.808451,0.5181"
       inkscape:connector-curvature="0"
       sodipodi:nodetypes="csc"
       inkscape:export-filename="C:\Users\Marcel\Patka\Karlovka\1BcLS\zapoctak-bomberman\bman2png.png"
       inkscape:export-xdpi="92.123688"
       inkscape:export-ydpi="92.123688" />
    <path
       sodipodi:type="arc"
       style="fill:#000000;fill-opacity:1;fill-rule:nonzero;stroke:#000000;stroke-width:16.08222008;stroke-linecap:round;stroke-linejoin:round;stroke-miterlimit:4;stroke-opacity:1;stroke-dasharray:none"
       id="path3830"
       sodipodi:cx="218.88112"
       sodipodi:cy="281.11887"
       sodipodi:rx="81.818176"
       sodipodi:ry="74.125877"
       d="m 299.66563,269.3733 a 81.818176,74.125877 0 1 1 -0.84593,-4.05174"
       transform="matrix(0.12993179,0,0,0.11902895,-7.9887038,1000.8906)"
       sodipodi:start="6.1240603"
       sodipodi:end="12.351609"
       sodipodi:open="true"
       inkscape:export-filename="C:\Users\Marcel\Patka\Karlovka\1BcLS\zapoctak-bomberman\bman2png.png"
       inkscape:export-xdpi="92.123688"
       inkscape:export-ydpi="92.123688" />
    <path
       style="fill:none;stroke:#000000;stroke-width:0;stroke-linecap:butt;stroke-linejoin:miter;stroke-miterlimit:4;stroke-opacity:1;stroke-dasharray:none"
       d="m 15.224364,1043.2282 0,2.4609"
       id="path3836"
       inkscape:path-effect="#path-effect3838"
       inkscape:original-d="m 15.224364,1043.2282 0,2.4609"
       inkscape:connector-curvature="0"
       inkscape:export-filename="C:\Users\Marcel\Patka\Karlovka\1BcLS\zapoctak-bomberman\bman2png.png"
       inkscape:export-xdpi="92.123688"
       inkscape:export-ydpi="92.123688" />
    <path
       style="fill:#000000;fill-opacity:1;stroke:#000000;stroke-width:0.99999994px;stroke-linecap:butt;stroke-linejoin:miter;stroke-opacity:1"
       d="m 16.89069,1042.8496 -0.166631,3.155 -4.249141,0.064 0.333268,-0.9464 1.583013,-0.4416 c 0.132114,-0.037 0.26505,-0.073 0.401235,-0.089 0.136185,-0.016 0.275542,-0.013 0.40873,0.02 0.133188,0.033 0.259489,0.095 0.364749,0.1827 0.105261,0.088 0.189057,0.2014 0.241668,0.3281 l 1.083109,-2.2726"
       id="path3840"
       inkscape:path-effect="#path-effect3842"
       inkscape:original-d="m 16.89069,1042.8496 -0.166631,3.155 -4.249141,0.064 0.333268,-0.9464 1.583013,-0.4416 c 3.59793,-1.004 0.750284,1.1149 1.416382,0.4416 z"
       inkscape:connector-curvature="0"
       sodipodi:nodetypes="ccccscc"
       inkscape:export-filename="C:\Users\Marcel\Patka\Karlovka\1BcLS\zapoctak-bomberman\bman2png.png"
       inkscape:export-xdpi="92.123688"
       inkscape:export-ydpi="92.123688" />
    <path
       style="fill:#000000;fill-opacity:1;stroke:#000000;stroke-width:0.99999994px;stroke-linecap:butt;stroke-linejoin:miter;stroke-opacity:1"
       d="m 23.2644,1043.0074 0.166634,3.155 4.249142,0.063 -0.333268,-0.9464 -1.583014,-0.4418 c -0.132127,-0.037 -0.265077,-0.073 -0.401279,-0.089 -0.136202,-0.016 -0.275579,-0.013 -0.408781,0.02 -0.133202,0.033 -0.259509,0.095 -0.364757,0.1827 -0.105248,0.088 -0.18901,0.2016 -0.241562,0.3283 l -1.083115,-2.2716"
       id="path3840-8"
       inkscape:path-effect="#path-effect3842-4"
       inkscape:original-d="m 23.2644,1043.0074 0.166634,3.155 4.249142,0.063 -0.333268,-0.9464 -1.583014,-0.4418 c -3.597932,-1.004 -0.750284,1.1151 -1.416379,0.4418 z"
       inkscape:connector-curvature="0"
       sodipodi:nodetypes="ccccscc"
       inkscape:export-filename="C:\Users\Marcel\Patka\Karlovka\1BcLS\zapoctak-bomberman\bman2png.png"
       inkscape:export-xdpi="92.123688"
       inkscape:export-ydpi="92.123688" />
    <path
       sodipodi:type="arc"
       style="fill:#000000;fill-opacity:1;fill-rule:nonzero;stroke:#000000;stroke-width:2.45035028;stroke-linecap:round;stroke-linejoin:round;stroke-miterlimit:4;stroke-opacity:1;stroke-dasharray:none"
       id="path3865"
       sodipodi:cx="39.316238"
       sodipodi:cy="24.358974"
       sodipodi:rx="1.4957265"
       sodipodi:ry="0.64102566"
       d="m 40.793068,24.257401 a 1.4957265,0.64102566 0 1 1 -0.01546,-0.03504"
       transform="matrix(0.67326254,-0.49474929,0.67615824,0.49263049,-10.194693,1036.7535)"
       sodipodi:start="6.1240603"
       sodipodi:end="12.351609"
       sodipodi:open="true"
       inkscape:transform-center-x="-2.0506603"
       inkscape:transform-center-y="-4.3272594e-005"
       inkscape:export-xdpi="92.123688"
       inkscape:export-ydpi="92.123688"
       inkscape:export-filename="C:\Users\Marcel\Patka\Karlovka\1BcLS\zapoctak-bomberman\bman2png.png" />
    <path
       sodipodi:type="arc"
       style="fill:#000000;fill-opacity:1;fill-rule:nonzero;stroke:#000000;stroke-width:2.45035028;stroke-linecap:round;stroke-linejoin:round;stroke-miterlimit:4;stroke-opacity:1;stroke-dasharray:none"
       id="path3865-8"
       sodipodi:cx="39.316238"
       sodipodi:cy="24.358974"
       sodipodi:rx="1.4957265"
       sodipodi:ry="0.64102566"
       d="m 40.793068,24.257401 a 1.4957265,0.64102566 0 1 1 -0.01546,-0.03504"
       transform="matrix(-0.67326254,-0.49474929,-0.67615824,0.49263049,51.220329,1036.6042)"
       sodipodi:start="6.1240603"
       sodipodi:end="12.351609"
       sodipodi:open="true"
       inkscape:transform-center-x="2.0506609"
       inkscape:transform-center-y="-7.1415852e-005"
       inkscape:export-xdpi="92.123688"
       inkscape:export-ydpi="92.123688"
       inkscape:export-filename="C:\Users\Marcel\Patka\Karlovka\1BcLS\zapoctak-bomberman\bman2png.png" />
  </g>
</svg>
