<?xml version="1.0" encoding="UTF-8" standalone="no"?>
<!-- Created with Inkscape (http://www.inkscape.org/) -->

<svg
   xmlns:dc="http://purl.org/dc/elements/1.1/"
   xmlns:cc="http://creativecommons.org/ns#"
   xmlns:rdf="http://www.w3.org/1999/02/22-rdf-syntax-ns#"
   xmlns:svg="http://www.w3.org/2000/svg"
   xmlns="http://www.w3.org/2000/svg"
   xmlns:sodipodi="http://sodipodi.sourceforge.net/DTD/sodipodi-0.dtd"
   xmlns:inkscape="http://www.inkscape.org/namespaces/inkscape"
   width="500"
   height="500"
   id="svg2"
   version="1.1"
   inkscape:version="0.48.2 r9819"
   sodipodi:docname="New document 1">
  <defs
     id="defs4">
    <inkscape:path-effect
       effect="spiro"
       id="path-effect3834"
       is_visible="true" />
    <inkscape:path-effect
       effect="spiro"
       id="path-effect3805"
       is_visible="true" />
    <inkscape:path-effect
       effect="spiro"
       id="path-effect3767"
       is_visible="true" />
    <inkscape:path-effect
       effect="spiro"
       id="path-effect3763"
       is_visible="true" />
    <inkscape:path-effect
       effect="spiro"
       id="path-effect3767-1"
       is_visible="true" />
    <inkscape:path-effect
       effect="spiro"
       id="path-effect3805-0"
       is_visible="true" />
  </defs>
  <sodipodi:namedview
     id="base"
     pagecolor="#ffffff"
     bordercolor="#666666"
     borderopacity="1.0"
     inkscape:pageopacity="0.0"
     inkscape:pageshadow="2"
     inkscape:zoom="1.43"
     inkscape:cx="265.90909"
     inkscape:cy="298.10409"
     inkscape:document-units="px"
     inkscape:current-layer="layer1"
     showgrid="false"
     inkscape:window-width="1920"
     inkscape:window-height="1017"
     inkscape:window-x="-8"
     inkscape:window-y="-8"
     inkscape:window-maximized="1" />
  <metadata
     id="metadata7">
    <rdf:RDF>
      <cc:Work
         rdf:about="">
        <dc:format>image/svg+xml</dc:format>
        <dc:type
           rdf:resource="http://purl.org/dc/dcmitype/StillImage" />
        <dc:title></dc:title>
      </cc:Work>
    </rdf:RDF>
  </metadata>
  <g
     inkscape:label="Layer 1"
     inkscape:groupmode="layer"
     id="layer1"
     transform="translate(0,-552.36218)">
    <path
       sodipodi:type="arc"
       style="fill:none;stroke:none"
       id="path2985"
       sodipodi:cx="170.97902"
       sodipodi:cy="116.78322"
       sodipodi:rx="10.13986"
       sodipodi:ry="43.356644"
       d="m 181.11888,116.78322 a 10.13986,43.356644 0 1 1 -20.27972,0 10.13986,43.356644 0 1 1 20.27972,0 z"
       transform="matrix(1.1228962,0,0,1,-17.789874,552.36218)" />
    <path
       sodipodi:type="arc"
       style="fill:none;stroke:#000000;stroke-width:0.94369179;stroke-opacity:1"
       id="path3759"
       sodipodi:cx="210.13986"
       sodipodi:cy="154.89511"
       sodipodi:rx="64.685318"
       sodipodi:ry="85.664337"
       d="M 274.82518,154.89511 A 64.685318,85.664337 0 1 1 145.70605,147.34835"
       transform="matrix(1.1228962,0,0,1,-17.789874,552.36218)"
       sodipodi:start="0"
       sodipodi:end="3.2298039"
       sodipodi:open="true" />
    <path
       style="fill:none;stroke:#000000;stroke-width:0.99999994px;stroke-linecap:butt;stroke-linejoin:miter;stroke-opacity:1"
       d="m 145.54049,697.81673 c 16.41978,7.72541 33.91742,13.1557 51.82598,16.08391 31.41072,5.13592 64.06719,2.47004 94.22905,-7.69231"
       id="path3765"
       inkscape:path-effect="#path-effect3767"
       inkscape:original-d="m 145.54049,697.81673 c 0,0 27.48347,14.68531 51.82598,16.08391 24.3425,1.3986 94.22905,-7.69231 94.22905,-7.69231"
       inkscape:connector-curvature="0"
       sodipodi:nodetypes="csc" />
    <path
       transform="matrix(1.1038942,-0.18318943,-0.20570272,-0.98307763,18.182243,895.2788)"
       sodipodi:type="arc"
       style="fill:none;stroke:#000000;stroke-width:0.94369179;stroke-opacity:1"
       id="path3759-7"
       sodipodi:cx="210.13986"
       sodipodi:cy="154.89511"
       sodipodi:rx="64.685318"
       sodipodi:ry="85.664337"
       d="M 274.00797,141.32123 A 64.685318,85.664337 0 0 1 146.80686,172.31995"
       sodipodi:start="6.1240603"
       sodipodi:end="9.2199402"
       sodipodi:open="true" />
    <path
       style="fill:none;stroke:#000000;stroke-width:0.99999994px;stroke-linecap:butt;stroke-linejoin:miter;stroke-opacity:1"
       d="m 144.75523,698.92007 c 16.39146,-7.7934 33.90229,-13.22779 51.826,-16.08391 30.38752,-4.84221 61.94297,-2.17738 91.08808,7.69231"
       id="path3765-4"
       inkscape:path-effect="#path-effect3767-1"
       inkscape:original-d="m 144.75523,698.92007 c 0,0 27.48348,-14.68531 51.826,-16.08391 24.3425,-1.3986 91.08808,7.69231 91.08808,7.69231"
       inkscape:connector-curvature="0"
       sodipodi:nodetypes="csc" />
    <path
       style="fill:#000000;fill-opacity:1;stroke:#000000;stroke-width:5;stroke-linecap:round;stroke-linejoin:round;stroke-miterlimit:4;stroke-opacity:1;stroke-dasharray:none"
       d="m 145.93666,689.88746 c 2.38195,-30.53049 17.72093,-54.36769 41.65354,-64.73071 33.09735,-14.33145 73.62609,4.88511 92.89452,44.04561 3.18318,6.46941 7.72062,19.25202 7.04686,19.85204 -0.19282,0.17172 -2.44037,-0.33058 -4.99456,-1.1162 -40.76021,-12.53717 -88.62177,-10.40412 -127.59881,5.6867 -4.57021,1.88672 -8.59102,3.4304 -8.93512,3.4304 -0.34411,0 -0.37401,-3.22553 -0.0665,-7.16784 l 0,0 z"
       id="path3797"
       inkscape:connector-curvature="0" />
    <path
       style="fill:#000000;fill-opacity:1;fill-rule:nonzero;stroke:#000000;stroke-width:5;stroke-linecap:round;stroke-linejoin:round;stroke-miterlimit:4;stroke-opacity:1;stroke-dasharray:none"
       d="m 208.79174,791.18813 c -12.71787,-2.16606 -23.37984,-7.46462 -33.80007,-16.79723 -15.81022,-14.16002 -25.0668,-33.12651 -27.79694,-56.95515 -1.03444,-9.0285 -1.06726,-16.67069 -0.074,-17.2174 0.41569,-0.22879 2.50702,0.3743 4.6474,1.3402 14.07849,6.35332 35.10746,11.91694 54.66782,14.46342 10.11182,1.31642 35.50476,1.14392 46.76775,-0.3177 9.77817,-1.26893 25.05826,-4.42697 32.34539,-6.68503 2.48333,-0.76951 4.51212,-1.18004 4.50843,-0.91229 -0.0566,4.10454 -1.93594,17.79492 -3.08811,22.49621 -5.32975,21.74734 -18.95995,41.46415 -35.79489,51.77921 -4.92048,3.01488 -14.02402,6.73589 -19.61082,8.01582 -6.77406,1.55193 -16.3481,1.88404 -22.77202,0.78994 l 0,0 z"
       id="path3799"
       inkscape:connector-curvature="0" />
    <path
       style="fill:#ffccaa;fill-opacity:1;fill-rule:nonzero;stroke:#000000;stroke-width:5;stroke-linecap:round;stroke-linejoin:round;stroke-miterlimit:4;stroke-opacity:1;stroke-dasharray:none"
       d="m 208.79174,713.38913 c -19.86184,-2.70148 -37.39177,-7.16096 -53.39647,-13.58365 l -3.92621,-1.57559 5.10407,-2.0503 c 24.28814,-9.75651 47.25582,-13.62716 76.56111,-12.90255 17.32353,0.42835 26.03608,1.61442 42.45731,5.77986 5.21243,1.32219 10.21571,2.40399 11.11839,2.40399 1.41953,0 1.75504,0.63765 2.48364,4.72028 1.53832,8.61979 1.53536,9.26573 -0.0422,9.26573 -0.78442,0 -5.22855,0.95504 -9.87583,2.12232 -19.27865,4.84226 -26.27601,5.70516 -48.10436,5.93212 -11.01303,0.11451 -21.08376,0.064 -22.3794,-0.11221 z"
       id="path3801"
       inkscape:connector-curvature="0" />
    <path
       style="fill:none;stroke:#000000;stroke-width:1.99999988;stroke-linecap:butt;stroke-linejoin:miter;stroke-miterlimit:4;stroke-opacity:1;stroke-dasharray:none"
       d="m 193.44025,694.32022 c 5.45734,-0.23529 10.97382,1.1157 15.70484,3.84615 2.98536,1.72296 5.6587,3.98468 7.85242,6.64336"
       id="path3803"
       inkscape:path-effect="#path-effect3805"
       inkscape:original-d="m 193.44025,694.32022 c 0,0 15.18135,-6.52681 15.70484,3.84615 0.24377,4.8302 7.85242,6.64336 7.85242,6.64336"
       inkscape:connector-curvature="0"
       sodipodi:nodetypes="csc" />
    <path
       style="fill:none;stroke:#000000;stroke-width:1.99999988;stroke-linecap:butt;stroke-linejoin:miter;stroke-miterlimit:4;stroke-opacity:1;stroke-dasharray:none"
       d="m 260.97107,693.27593 c -5.45733,-0.23529 -10.97381,1.11571 -15.70483,3.84615 -2.98536,1.72296 -5.65871,3.98468 -7.85243,6.64336"
       id="path3803-9"
       inkscape:path-effect="#path-effect3805-0"
       inkscape:original-d="m 260.97107,693.27593 c 0,0 -15.18134,-6.52681 -15.70483,3.84615 -0.24377,4.8302 -7.85243,6.64336 -7.85243,6.64336"
       inkscape:connector-curvature="0"
       sodipodi:nodetypes="csc" />
    <path
       sodipodi:type="arc"
       style="fill:#000000;fill-opacity:1;fill-rule:nonzero;stroke:#000000;stroke-width:1.68442917;stroke-linecap:round;stroke-linejoin:round;stroke-miterlimit:4;stroke-opacity:1;stroke-dasharray:none"
       id="path3830"
       sodipodi:cx="218.88112"
       sodipodi:cy="281.11887"
       sodipodi:rx="81.818176"
       sodipodi:ry="74.125877"
       d="m 299.66563,269.3733 a 81.818176,74.125877 0 1 1 -0.84593,-4.05174"
       transform="matrix(1.1495504,0,0,1.226384,-35.880616,528.58131)"
       sodipodi:start="6.1240603"
       sodipodi:end="12.351609"
       sodipodi:open="true" />
  </g>
</svg>
